<svg width="143" height="31" viewBox="0 0 143 31" fill="none" xmlns="http://www.w3.org/2000/svg">
<path d="M10.88 20.796L11.2623 20.4737L10.9067 20.0519L10.5218 20.4472L10.88 20.796ZM7.772 23.988L7.41376 23.6392L7.272 23.7848V23.988H7.772ZM7.772 29V29.5H8.272V29H7.772ZM4.132 29H3.632V29.5H4.132V29ZM4.132 9.4V8.9H3.632V9.4H4.132ZM7.772 9.4H8.272V8.9H7.772V9.4ZM7.772 19.452H7.272V20.6913L8.13201 19.799L7.772 19.452ZM17.46 9.4V8.9H17.2475L17.1 9.05302L17.46 9.4ZM21.548 9.4L21.9124 9.74232L22.7036 8.9H21.548V9.4ZM13.316 18.164L12.9516 17.8217L12.6536 18.1389L12.9267 18.4778L13.316 18.164ZM22.052 29V29.5H23.0974L22.4413 28.6862L22.052 29ZM17.796 29L17.4137 29.3223L17.5635 29.5H17.796V29ZM10.5218 20.4472L7.41376 23.6392L8.13024 24.3368L11.2382 21.1448L10.5218 20.4472ZM7.272 23.988V29H8.272V23.988H7.272ZM7.772 28.5H4.132V29.5H7.772V28.5ZM4.632 29V9.4H3.632V29H4.632ZM4.132 9.9H7.772V8.9H4.132V9.9ZM7.272 9.4V19.452H8.272V9.4H7.272ZM8.13201 19.799L17.82 9.74697L17.1 9.05302L7.41199 19.105L8.13201 19.799ZM17.46 9.9H21.548V8.9H17.46V9.9ZM21.1836 9.05768L12.9516 17.8217L13.6804 18.5063L21.9124 9.74232L21.1836 9.05768ZM12.9267 18.4778L21.6627 29.3138L22.4413 28.6862L13.7053 17.8502L12.9267 18.4778ZM22.052 28.5H17.796V29.5H22.052V28.5ZM18.1783 28.6777L11.2623 20.4737L10.4977 21.1183L17.4137 29.3223L18.1783 28.6777ZM26.357 27.012L26.0013 27.3634L26.0034 27.3656L26.357 27.012ZM24.089 9.4V8.9H23.589V9.4H24.089ZM27.729 9.4H28.229V8.9H27.729V9.4ZM37.669 9.4V8.9H37.169V9.4H37.669ZM41.253 9.4H41.753V8.9H41.253V9.4ZM38.985 27.012L38.6293 26.6606L38.6293 26.6607L38.985 27.012ZM32.685 28.78C30.0739 28.78 28.1055 28.0534 26.7106 26.6584L26.0034 27.3656C27.6325 28.9946 29.8828 29.78 32.685 29.78V28.78ZM26.7127 26.6606C25.3197 25.2505 24.589 23.2092 24.589 20.46H23.589C23.589 23.3855 24.3703 25.7122 26.0013 27.3634L26.7127 26.6606ZM24.589 20.46V9.4H23.589V20.46H24.589ZM24.089 9.9H27.729V8.9H24.089V9.9ZM27.229 9.4V20.32H28.229V9.4H27.229ZM27.229 20.32C27.229 22.3033 27.6559 23.8841 28.5967 24.9729C29.5496 26.0757 30.954 26.588 32.713 26.588V25.588C31.1493 25.588 30.0618 25.139 29.3533 24.3191C28.6328 23.4852 28.229 22.182 28.229 20.32H27.229ZM32.713 26.588C34.4635 26.588 35.8613 26.0751 36.8092 24.9718C37.7447 23.8831 38.169 22.3027 38.169 20.32H37.169C37.169 22.1826 36.7673 23.4862 36.0508 24.3202C35.3467 25.1395 34.2665 25.588 32.713 25.588V26.588ZM38.169 20.32V9.4H37.169V20.32H38.169ZM37.669 9.9H41.253V8.9H37.669V9.9ZM40.753 9.4V20.46H41.753V9.4H40.753ZM40.753 20.46C40.753 23.2092 40.0223 25.2505 38.6293 26.6606L39.3407 27.3634C40.9717 25.7122 41.753 23.3855 41.753 20.46H40.753ZM38.6293 26.6607C37.2538 28.0533 35.2965 28.78 32.685 28.78V29.78C35.4869 29.78 37.7295 28.9947 39.3407 27.3633L38.6293 26.6607ZM59.1748 29L58.7647 29.2861L58.9139 29.5H59.1748V29ZM55.1707 23.26L55.5808 22.9739L55.4108 22.7302L55.1155 22.7631L55.1707 23.26ZM49.9907 23.288V22.788H49.4907V23.288H49.9907ZM49.9907 29V29.5H50.4907V29H49.9907ZM46.3507 29H45.8507V29.5H46.3507V29ZM46.3507 9.4V8.9H45.8507V9.4H46.3507ZM58.8387 10.24L58.6344 10.6963L58.6369 10.6975L58.8387 10.24ZM61.7508 12.648L62.1713 12.3776L61.7508 12.648ZM61.6668 20.18L61.2541 19.8976L61.2507 19.9026L61.6668 20.18ZM58.5868 22.56L58.4055 22.094L57.8118 22.3249L58.1771 22.8467L58.5868 22.56ZM63.0947 29V29.5H64.0551L63.5044 28.7133L63.0947 29ZM57.8587 13.488L57.5421 13.875L57.8587 13.488ZM49.9907 12.48V11.98H49.4907V12.48H49.9907ZM49.9907 20.292H49.4907V20.792H49.9907V20.292ZM57.8587 19.284L58.1754 19.671L58.1805 19.6667L57.8587 19.284ZM59.5848 28.7139L55.5808 22.9739L54.7607 23.5461L58.7647 29.2861L59.5848 28.7139ZM55.1155 22.7631C54.976 22.7786 54.7465 22.788 54.4147 22.788V23.788C54.755 23.788 55.0295 23.7788 55.226 23.7569L55.1155 22.7631ZM54.4147 22.788H49.9907V23.788H54.4147V22.788ZM49.4907 23.288V29H50.4907V23.288H49.4907ZM49.9907 28.5H46.3507V29.5H49.9907V28.5ZM46.8507 29V9.4H45.8507V29H46.8507ZM46.3507 9.9H54.4147V8.9H46.3507V9.9ZM54.4147 9.9C56.0594 9.9 57.4615 10.1711 58.6344 10.6963L59.0431 9.78366C57.7147 9.18885 56.1674 8.9 54.4147 8.9V9.9ZM58.6369 10.6975C59.8274 11.2227 60.7172 11.9649 61.3302 12.9184L62.1713 12.3776C61.4403 11.2404 60.3888 10.3773 59.0406 9.78254L58.6369 10.6975ZM61.3302 12.9184C61.9426 13.8711 62.2588 15.0152 62.2588 16.372H63.2588C63.2588 14.8541 62.9029 13.5156 62.1713 12.3776L61.3302 12.9184ZM62.2588 16.372C62.2588 17.7609 61.9173 18.9284 61.2541 19.8977L62.0794 20.4623C62.8722 19.3036 63.2588 17.9325 63.2588 16.372H62.2588ZM61.2507 19.9026C60.6055 20.8704 59.6665 21.6036 58.4055 22.094L58.768 23.026C60.1951 22.471 61.3093 21.6176 62.0828 20.4573L61.2507 19.9026ZM58.1771 22.8467L62.6851 29.2867L63.5044 28.7133L58.9964 22.2733L58.1771 22.8467ZM63.0947 28.5H59.1748V29.5H63.0947V28.5ZM59.5908 16.372C59.5908 15.0012 59.134 13.8854 58.1754 13.101L57.5421 13.875C58.2261 14.4346 58.5908 15.2415 58.5908 16.372H59.5908ZM58.1754 13.101C57.2298 12.3274 55.8939 11.98 54.2467 11.98V12.98C55.773 12.98 56.845 13.3046 57.5421 13.875L58.1754 13.101ZM54.2467 11.98H49.9907V12.98H54.2467V11.98ZM49.4907 12.48V20.292H50.4907V12.48H49.4907ZM49.9907 20.792H54.2467V19.792H49.9907V20.792ZM54.2467 20.792C55.8939 20.792 57.2298 20.4446 58.1754 19.671L57.5421 18.897C56.845 19.4674 55.773 19.792 54.2467 19.792V20.792ZM58.1805 19.6667C59.1341 18.8648 59.5908 17.7431 59.5908 16.372H58.5908C58.5908 17.5022 58.2261 18.3218 57.5369 18.9013L58.1805 19.6667ZM68.5112 28.636L68.3646 29.114L68.3664 29.1146L68.5112 28.636ZM65.1792 26.928L64.7225 26.7245L64.5714 27.0637L64.8524 27.3064L65.1792 26.928ZM66.4392 24.1L66.7493 23.7078L66.2445 23.3086L65.9825 23.8965L66.4392 24.1ZM69.3792 25.668L69.212 26.1393L69.2211 26.1423L69.3792 25.668ZM76.1552 25.556L75.8854 25.135L75.8804 25.1383L76.1552 25.556ZM76.6312 22.336L76.2864 22.6981L76.2952 22.7065L76.3044 22.7144L76.6312 22.336ZM75.1192 21.468L75.2773 20.9937L75.1192 21.468ZM72.5992 20.768L72.7185 20.2824L72.7148 20.2815L72.5992 20.768ZM68.9592 19.704L68.7785 20.1702L68.7816 20.1714L68.9592 19.704ZM66.5792 18.052L66.1988 18.3767L66.2076 18.3865L66.5792 18.052ZM66.4672 12.032L66.0512 11.7546L66.0498 11.7567L66.4672 12.032ZM69.1272 9.904L68.9268 9.44591L68.9241 9.44709L69.1272 9.904ZM77.0232 9.568L76.8983 10.0521L77.0232 9.568ZM80.0192 10.856L80.4825 11.0441L80.6359 10.6662L80.2966 10.44L80.0192 10.856ZM78.8712 13.684L78.6181 14.1152L79.1169 14.408L79.3345 13.8721L78.8712 13.684ZM76.1832 12.536L76.0484 13.0175L76.1832 12.536ZM70.2472 12.872L69.9649 12.4593L69.9597 12.4629L70.2472 12.872ZM69.7992 16.176L69.4637 16.5469L69.4724 16.5544L69.7992 16.176ZM71.3392 17.016L71.4973 16.5417L71.3392 17.016ZM73.8592 17.716L73.7399 18.2016L73.7468 18.2032L73.8592 17.716ZM77.4432 18.78L77.2575 19.2443L77.2656 19.2474L77.4432 18.78ZM79.8232 20.432L79.4469 20.7613L79.4516 20.7665L79.8232 20.432ZM79.9352 26.396L79.5219 26.1146L79.5178 26.1207L79.9352 26.396ZM77.2752 28.496L77.0748 28.0379L77.2752 28.496ZM72.9072 28.78C71.4433 28.78 70.0268 28.5723 68.6561 28.1574L68.3664 29.1146C69.833 29.5584 71.3472 29.78 72.9072 29.78V28.78ZM68.6578 28.158C67.3023 27.7423 66.2599 27.2007 65.506 26.5496L64.8524 27.3064C65.7412 28.074 66.9202 28.6711 68.3646 29.114L68.6578 28.158ZM65.6359 27.1315L66.8959 24.3035L65.9825 23.8965L64.7225 26.7245L65.6359 27.1315ZM66.1291 24.4922C66.9824 25.1669 68.0131 25.7138 69.212 26.1392L69.5464 25.1968C68.4307 24.8009 67.5014 24.3024 66.7493 23.7078L66.1291 24.4922ZM69.2211 26.1423C70.4453 26.5504 71.6746 26.756 72.9072 26.756V25.756C71.7878 25.756 70.6651 25.5696 69.5373 25.1937L69.2211 26.1423ZM72.9072 26.756C74.399 26.756 75.5994 26.5202 76.43 25.9737L75.8804 25.1383C75.2924 25.5252 74.3274 25.756 72.9072 25.756V26.756ZM76.425 25.9769C77.2745 25.4324 77.7472 24.6682 77.7472 23.708H76.7472C76.7472 24.2784 76.4919 24.7463 75.8854 25.1351L76.425 25.9769ZM77.7472 23.708C77.7472 23.008 77.4826 22.4107 76.958 21.9576L76.3044 22.7144C76.6011 22.9707 76.7472 23.288 76.7472 23.708H77.7472ZM76.976 21.9739C76.5213 21.5408 75.9494 21.2177 75.2773 20.9937L74.9611 21.9423C75.5211 22.129 75.9572 22.3845 76.2864 22.6981L76.976 21.9739ZM75.2773 20.9937C74.6428 20.7822 73.788 20.5451 72.7185 20.2824L72.48 21.2536C73.5384 21.5135 74.3636 21.7432 74.9611 21.9423L75.2773 20.9937ZM72.7148 20.2815C71.2326 19.9295 70.0422 19.5807 69.1368 19.2366L68.7816 20.1714C69.7429 20.5367 70.9792 20.8971 72.4837 21.2545L72.7148 20.2815ZM69.14 19.2378C68.3002 18.9122 67.5717 18.4074 66.9509 17.7175L66.2076 18.3865C66.9307 19.19 67.7889 19.7865 68.7785 20.1702L69.14 19.2378ZM66.9595 17.7274C66.403 17.0755 66.0992 16.1751 66.0992 14.972H65.0992C65.0992 16.3449 65.4487 17.4978 66.1989 18.3766L66.9595 17.7274ZM66.0992 14.972C66.0992 13.9841 66.3615 13.1004 66.8846 12.3073L66.0498 11.7567C65.4156 12.7183 65.0992 13.7946 65.0992 14.972H66.0992ZM66.8832 12.3094C67.4186 11.5064 68.2238 10.8527 69.3303 10.3609L68.9241 9.44709C67.6787 10.0006 66.7105 10.7656 66.0512 11.7547L66.8832 12.3094ZM69.3276 10.3621C70.4425 9.87433 71.826 9.62 73.4952 9.62V8.62C71.7297 8.62 70.2013 8.88833 68.9268 9.44592L69.3276 10.3621ZM73.4952 9.62C74.6477 9.62 75.7817 9.764 76.8983 10.0521L77.1482 9.08386C75.95 8.77467 74.7321 8.62 73.4952 8.62V9.62ZM76.8983 10.0521C78.0111 10.3393 78.9562 10.7482 79.7419 11.272L80.2966 10.44C79.4023 9.84377 78.35 9.39402 77.1482 9.08386L76.8983 10.0521ZM79.5559 10.6679L78.4079 13.4959L79.3345 13.8721L80.4825 11.0441L79.5559 10.6679ZM79.1243 13.2528C78.2296 12.7276 77.2939 12.3278 76.318 12.0545L76.0484 13.0175C76.9392 13.2669 77.7955 13.6324 78.6181 14.1152L79.1243 13.2528ZM76.318 12.0545C75.3454 11.7822 74.3946 11.644 73.4672 11.644V12.644C74.2945 12.644 75.1544 12.7672 76.0484 13.0175L76.318 12.0545ZM73.4672 11.644C71.9901 11.644 70.7964 11.8904 69.9649 12.4593L70.5296 13.2847C71.1167 12.883 72.0697 12.644 73.4672 12.644V11.644ZM69.9597 12.4629C69.144 13.0361 68.7112 13.8288 68.7112 14.804H69.7112C69.7112 14.1739 69.9691 13.6785 70.5347 13.2811L69.9597 12.4629ZM68.7112 14.804C68.7112 15.4958 68.9602 16.0911 69.4638 16.5468L70.1347 15.8052C69.8543 15.5515 69.7112 15.2322 69.7112 14.804H68.7112ZM69.4724 16.5544C69.9412 16.9593 70.5151 17.2683 71.1811 17.4903L71.4973 16.5417C70.9314 16.353 70.4786 16.1021 70.126 15.7976L69.4724 16.5544ZM71.1811 17.4903C71.8156 17.7018 72.6704 17.9389 73.74 18.2016L73.9785 17.2304C72.92 16.9705 72.0948 16.7408 71.4973 16.5417L71.1811 17.4903ZM73.7468 18.2032C75.1886 18.5359 76.3564 18.8838 77.2575 19.2442L77.6289 18.3158C76.6633 17.9295 75.4418 17.5681 73.9716 17.2288L73.7468 18.2032ZM77.2656 19.2474C78.1229 19.5732 78.8479 20.0766 79.4469 20.7613L80.1995 20.1027C79.4919 19.2941 78.6302 18.6962 77.6208 18.3126L77.2656 19.2474ZM79.4516 20.7665C80.0209 21.399 80.3312 22.2765 80.3312 23.456H81.3312C81.3312 22.0969 80.9696 20.9583 80.1949 20.0975L79.4516 20.7665ZM80.3312 23.456C80.3312 24.4404 80.0616 25.322 79.5219 26.1146L80.3485 26.6774C81.0035 25.7153 81.3312 24.6369 81.3312 23.456H80.3312ZM79.5178 26.1207C79.0038 26.9 78.2023 27.5446 77.0748 28.0379L77.4756 28.9541C78.7374 28.402 79.7093 27.6467 80.3526 26.6713L79.5178 26.1207ZM77.0748 28.0379C75.96 28.5257 74.5764 28.78 72.9072 28.78V29.78C74.6727 29.78 76.2011 29.5117 77.4756 28.9541L77.0748 28.0379ZM88.1432 12.48H88.6432V11.98H88.1432V12.48ZM81.6472 12.48H81.1472V12.98H81.6472V12.48ZM81.6472 9.4V8.9H81.1472V9.4H81.6472ZM98.2792 9.4H98.7792V8.9H98.2792V9.4ZM98.2792 12.48V12.98H98.7792V12.48H98.2792ZM91.7832 12.48V11.98H91.2832V12.48H91.7832ZM91.7832 29V29.5H92.2832V29H91.7832ZM88.1432 29H87.6432V29.5H88.1432V29ZM88.1432 11.98H81.6472V12.98H88.1432V11.98ZM82.1472 12.48V9.4H81.1472V12.48H82.1472ZM81.6472 9.9H98.2792V8.9H81.6472V9.9ZM97.7792 9.4V12.48H98.7792V9.4H97.7792ZM98.2792 11.98H91.7832V12.98H98.2792V11.98ZM91.2832 12.48V29H92.2832V12.48H91.2832ZM91.7832 28.5H88.1432V29.5H91.7832V28.5ZM88.6432 29V12.48H87.6432V29H88.6432ZM112.739 24.464L113.198 24.2657L113.067 23.964H112.739V24.464ZM102.939 24.464V23.964H102.608L102.479 24.2681L102.939 24.464ZM101.007 29V29.5H101.337L101.467 29.1959L101.007 29ZM97.2545 29L96.7986 28.7948L96.4812 29.5H97.2545V29ZM106.075 9.4V8.9H105.751L105.619 9.19482L106.075 9.4ZM109.659 9.4L110.114 9.19427L109.981 8.9H109.659V9.4ZM118.507 29V29.5H119.281L118.962 28.7943L118.507 29ZM114.699 29L114.24 29.1983L114.37 29.5H114.699V29ZM111.535 21.608V22.108H112.295L111.994 21.41L111.535 21.608ZM107.839 13.04L108.298 12.842L107.837 11.7736L107.379 12.8432L107.839 13.04ZM104.171 21.608L103.711 21.4112L103.413 22.108H104.171V21.608ZM112.739 23.964H102.939V24.964H112.739V23.964ZM102.479 24.2681L100.547 28.8041L101.467 29.1959L103.399 24.6599L102.479 24.2681ZM101.007 28.5H97.2545V29.5H101.007V28.5ZM97.7105 29.2052L106.53 9.60518L105.619 9.19482L96.7986 28.7948L97.7105 29.2052ZM106.075 9.9H109.659V8.9H106.075V9.9ZM109.203 9.60572L118.051 29.2057L118.962 28.7943L110.114 9.19427L109.203 9.60572ZM118.507 28.5H114.699V29.5H118.507V28.5ZM115.158 28.8017L113.198 24.2657L112.28 24.6623L114.24 29.1983L115.158 28.8017ZM111.994 21.41L108.298 12.842L107.379 13.238L111.075 21.806L111.994 21.41ZM107.379 12.8432L103.711 21.4112L104.63 21.8048L108.298 13.2368L107.379 12.8432ZM104.171 22.108H111.535V21.108H104.171V22.108ZM133.823 29L133.413 29.2861L133.562 29.5H133.823V29ZM129.819 23.26L130.229 22.9739L130.059 22.7302L129.764 22.7631L129.819 23.26ZM124.639 23.288V22.788H124.139V23.288H124.639ZM124.639 29V29.5H125.139V29H124.639ZM120.999 29H120.499V29.5H120.999V29ZM120.999 9.4V8.9H120.499V9.4H120.999ZM133.487 10.24L133.283 10.6963L133.285 10.6975L133.487 10.24ZM136.399 12.648L136.82 12.3776L136.399 12.648ZM136.315 20.18L135.903 19.8976L135.899 19.9026L136.315 20.18ZM133.235 22.56L133.054 22.094L132.46 22.3249L132.826 22.8467L133.235 22.56ZM137.743 29V29.5H138.704L138.153 28.7133L137.743 29ZM132.507 13.488L132.191 13.875L132.507 13.488ZM124.639 12.48V11.98H124.139V12.48H124.639ZM124.639 20.292H124.139V20.792H124.639V20.292ZM132.507 19.284L132.824 19.671L132.829 19.6667L132.507 19.284ZM134.233 28.7139L130.229 22.9739L129.409 23.5461L133.413 29.2861L134.233 28.7139ZM129.764 22.7631C129.624 22.7786 129.395 22.788 129.063 22.788V23.788C129.403 23.788 129.678 23.7788 129.874 23.7569L129.764 22.7631ZM129.063 22.788H124.639V23.788H129.063V22.788ZM124.139 23.288V29H125.139V23.288H124.139ZM124.639 28.5H120.999V29.5H124.639V28.5ZM121.499 29V9.4H120.499V29H121.499ZM120.999 9.9H129.063V8.9H120.999V9.9ZM129.063 9.9C130.708 9.9 132.11 10.1711 133.283 10.6963L133.692 9.78366C132.363 9.18885 130.816 8.9 129.063 8.9V9.9ZM133.285 10.6975C134.476 11.2227 135.366 11.9649 135.979 12.9184L136.82 12.3776C136.089 11.2404 135.037 10.3773 133.689 9.78254L133.285 10.6975ZM135.979 12.9184C136.591 13.8711 136.907 15.0152 136.907 16.372H137.907C137.907 14.8541 137.551 13.5156 136.82 12.3776L135.979 12.9184ZM136.907 16.372C136.907 17.7609 136.566 18.9284 135.903 19.8977L136.728 20.4623C137.521 19.3036 137.907 17.9325 137.907 16.372H136.907ZM135.899 19.9026C135.254 20.8704 134.315 21.6036 133.054 22.094L133.416 23.026C134.843 22.471 135.958 21.6176 136.731 20.4573L135.899 19.9026ZM132.826 22.8467L137.334 29.2867L138.153 28.7133L133.645 22.2733L132.826 22.8467ZM137.743 28.5H133.823V29.5H137.743V28.5ZM134.239 16.372C134.239 15.0012 133.782 13.8854 132.824 13.101L132.191 13.875C132.875 14.4346 133.239 15.2415 133.239 16.372H134.239ZM132.824 13.101C131.878 12.3274 130.542 11.98 128.895 11.98V12.98C130.421 12.98 131.493 13.3046 132.191 13.875L132.824 13.101ZM128.895 11.98H124.639V12.98H128.895V11.98ZM124.139 12.48V20.292H125.139V12.48H124.139ZM124.639 20.792H128.895V19.792H124.639V20.792ZM128.895 20.792C130.542 20.792 131.878 20.4446 132.824 19.671L132.191 18.897C131.493 19.4674 130.421 19.792 128.895 19.792V20.792ZM132.829 19.6667C133.783 18.8648 134.239 17.7431 134.239 16.372H133.239C133.239 17.5022 132.874 18.3218 132.185 18.9013L132.829 19.6667Z" fill="url(#paint0_linear)"/>
<path d="M9.88 18.796L6.772 21.988V27H3.132V7.4H6.772V17.452L16.46 7.4H20.548L12.316 16.164L21.052 27H16.796L9.88 18.796ZM31.685 27.28C28.9783 27.28 26.869 26.524 25.357 25.012C23.845 23.4813 23.089 21.2973 23.089 18.46V7.4H26.729V18.32C26.729 22.1653 28.3903 24.088 31.713 24.088C35.017 24.088 36.669 22.1653 36.669 18.32V7.4H40.253V18.46C40.253 21.2973 39.497 23.4813 37.985 25.012C36.4917 26.524 34.3917 27.28 31.685 27.28ZM58.1748 27L54.1708 21.26C54.0028 21.2787 53.7508 21.288 53.4148 21.288H48.9908V27H45.3508V7.4H53.4148C55.1134 7.4 56.5881 7.68 57.8388 8.24C59.1081 8.8 60.0788 9.60267 60.7508 10.648C61.4228 11.6933 61.7588 12.9347 61.7588 14.372C61.7588 15.8467 61.3948 17.116 60.6668 18.18C59.9574 19.244 58.9308 20.0373 57.5868 20.56L62.0948 27H58.1748ZM58.0908 14.372C58.0908 13.1213 57.6801 12.16 56.8587 11.488C56.0374 10.816 54.8334 10.48 53.2468 10.48H48.9908V18.292H53.2468C54.8334 18.292 56.0374 17.956 56.8587 17.284C57.6801 16.5933 58.0908 15.6227 58.0908 14.372ZM71.9072 27.28C70.3952 27.28 68.9299 27.0653 67.5112 26.636C66.1112 26.2067 65.0006 25.6373 64.1792 24.928L65.4392 22.1C66.2419 22.7347 67.2219 23.2573 68.3792 23.668C69.5552 24.06 70.7312 24.256 71.9072 24.256C73.3632 24.256 74.4459 24.0227 75.1552 23.556C75.8832 23.0893 76.2472 22.4733 76.2472 21.708C76.2472 21.148 76.0419 20.6907 75.6312 20.336C75.2392 19.9627 74.7352 19.6733 74.1192 19.468C73.5032 19.2627 72.6632 19.0293 71.5992 18.768C70.1059 18.4133 68.8926 18.0587 67.9592 17.704C67.0446 17.3493 66.2512 16.7987 65.5792 16.052C64.9259 15.2867 64.5992 14.26 64.5992 12.972C64.5992 11.8893 64.8886 10.9093 65.4672 10.032C66.0646 9.136 66.9512 8.42667 68.1272 7.904C69.3219 7.38133 70.7779 7.12 72.4952 7.12C73.6899 7.12 74.8659 7.26933 76.0232 7.568C77.1806 7.86667 78.1792 8.296 79.0192 8.856L77.8712 11.684C77.0126 11.18 76.1166 10.7973 75.1832 10.536C74.2499 10.2747 73.3446 10.144 72.4672 10.144C71.0299 10.144 69.9566 10.3867 69.2472 10.872C68.5566 11.3573 68.2112 12.0013 68.2112 12.804C68.2112 13.364 68.4072 13.8213 68.7992 14.176C69.2099 14.5307 69.7232 14.8107 70.3392 15.016C70.9552 15.2213 71.7952 15.4547 72.8592 15.716C74.3152 16.052 75.5099 16.4067 76.4432 16.78C77.3766 17.1347 78.1699 17.6853 78.8232 18.432C79.4952 19.1787 79.8312 20.1867 79.8312 21.456C79.8312 22.5387 79.5326 23.5187 78.9352 24.396C78.3566 25.2733 77.4699 25.9733 76.2752 26.496C75.0806 27.0187 73.6246 27.28 71.9072 27.28ZM87.1432 10.48H80.6472V7.4H97.2792V10.48H90.7832V27H87.1432V10.48ZM111.739 22.464H101.939L100.007 27H96.2545L105.075 7.4H108.659L117.507 27H113.699L111.739 22.464ZM110.535 19.608L106.839 11.04L103.171 19.608H110.535ZM132.823 27L128.819 21.26C128.651 21.2787 128.399 21.288 128.063 21.288H123.639V27H119.999V7.4H128.063C129.762 7.4 131.237 7.68 132.487 8.24C133.757 8.8 134.727 9.60267 135.399 10.648C136.071 11.6933 136.407 12.9347 136.407 14.372C136.407 15.8467 136.043 17.116 135.315 18.18C134.606 19.244 133.579 20.0373 132.235 20.56L136.743 27H132.823ZM132.739 14.372C132.739 13.1213 132.329 12.16 131.507 11.488C130.686 10.816 129.482 10.48 127.895 10.48H123.639V18.292H127.895C129.482 18.292 130.686 17.956 131.507 17.284C132.329 16.5933 132.739 15.6227 132.739 14.372Z" fill="url(#paint1_linear)"/>
<defs>
<linearGradient id="paint0_linear" x1="140.877" y1="3.94631" x2="1.93437" y2="31.9847" gradientUnits="userSpaceOnUse">
<stop stop-color="#FF848A"/>
<stop offset="1" stop-color="#FD5C63"/>
</linearGradient>
<linearGradient id="paint1_linear" x1="135.86" y1="4.41796" x2="1.11054" y2="27.5815" gradientUnits="userSpaceOnUse">
<stop stop-color="#FF767C"/>
<stop offset="1" stop-color="#FD5C63"/>
</linearGradient>
</defs>
</svg>
