<svg width="1440" height="680" viewBox="0 0 1440 680" fill="none" xmlns="http://www.w3.org/2000/svg">
<rect x="1" y="10" width="1440" height="670" fill="#C4DAFA"/>
<path d="M788.5 356C955 467.5 1317.5 636.5 1529 438.5M-90.5 396C-50 362.5 -6 288 121 245.5" stroke="#3E85F0" stroke-width="5"/>
<path d="M-13.75 100.683L68.3945 121.961" stroke="#FD5C63" stroke-width="6"/>
<path d="M16.6836 152.395L37.9621 70.25" stroke="#FD5C63" stroke-width="6"/>
<circle cx="397.5" cy="31.5" r="28" stroke="#3E85F0" stroke-width="7"/>
<circle cx="748" cy="128" r="77.5" stroke="#3E85F0" stroke-width="7"/>
<circle cx="748" cy="128" r="68" stroke="#3E85F0" stroke-width="2"/>
<path d="M742.2 99.8L740.079 101.921L740.092 101.934L740.105 101.947L742.2 99.8ZM742.2 133L744.321 135.121L742.2 133ZM713.3 157H707V163H713.3V157ZM707 157C706.896 157 707.369 156.976 707.846 157.454C708.324 157.931 708.3 158.404 708.3 158.3H702.3C702.3 159.329 702.559 160.652 703.604 161.696C704.648 162.741 705.971 163 707 163V157ZM708.3 158.3V97.4H702.3V158.3H708.3ZM708.3 97.4C708.3 97.2958 708.324 97.7686 707.846 98.2463C707.369 98.724 706.896 98.7 707 98.7V92.7C705.971 92.7 704.648 92.9593 703.604 94.0037C702.559 95.048 702.3 96.3709 702.3 97.4H708.3ZM707 98.7H730.8V92.7H707V98.7ZM730.8 98.7C735.088 98.7 738.045 99.8875 740.079 101.921L744.321 97.6787C740.888 94.2458 736.245 92.7 730.8 92.7V98.7ZM740.105 101.947C742.104 103.897 743.3 106.828 743.3 111.2H749.3C749.3 105.706 747.763 101.036 744.295 97.6526L740.105 101.947ZM743.3 111.2V121.6H749.3V111.2H743.3ZM743.3 121.6C743.3 125.888 742.112 128.845 740.079 130.879L744.321 135.121C747.754 131.688 749.3 127.045 749.3 121.6H743.3ZM740.079 130.879C738.045 132.912 735.088 134.1 730.8 134.1V140.1C736.245 140.1 740.888 138.554 744.321 135.121L740.079 130.879ZM730.8 134.1H716.2V140.1H730.8V134.1ZM716.2 134.1C715.457 134.1 714.342 134.243 713.379 135.045C712.312 135.935 712 137.146 712 138.1H718C718 138.387 717.888 139.099 717.221 139.655C716.936 139.892 716.659 140.003 716.478 140.053C716.388 140.078 716.318 140.089 716.273 140.095C716.229 140.1 716.203 140.1 716.2 140.1V134.1ZM712 138.1V158.3H718V138.1H712ZM712 158.3C712 158.404 711.976 157.931 712.454 157.454C712.931 156.976 713.404 157 713.3 157V163C714.329 163 715.652 162.741 716.696 161.696C717.741 160.652 718 159.329 718 158.3H712ZM716.1 131.5H729.4V125.5H716.1V131.5ZM729.4 131.5C732.261 131.5 734.951 130.748 736.89 128.727C738.807 126.729 739.5 123.999 739.5 121.1H733.5C733.5 123.135 733.01 124.104 732.56 124.573C732.133 125.019 731.272 125.5 729.4 125.5V131.5ZM739.5 121.1V111.6H733.5V121.1H739.5ZM739.5 111.6C739.5 108.701 738.807 105.971 736.89 103.973C734.951 101.952 732.261 101.2 729.4 101.2V107.2C731.272 107.2 732.133 107.681 732.56 108.127C733.01 108.596 733.5 109.565 733.5 111.6H739.5ZM729.4 101.2H716.1V107.2H729.4V101.2ZM716.1 101.2C715.338 101.2 714.206 101.367 713.257 102.23C712.253 103.143 712 104.327 712 105.2H718C718 105.407 717.93 106.091 717.293 106.67C716.71 107.2 716.129 107.2 716.1 107.2V101.2ZM712 105.2V127.5H718V105.2H712ZM712 127.5C712 128.373 712.253 129.557 713.257 130.47C714.206 131.333 715.338 131.5 716.1 131.5V125.5C716.129 125.5 716.71 125.5 717.293 126.03C717.93 126.609 718 127.293 718 127.5H712ZM773.532 165.2L771.411 163.079L771.388 163.101L771.366 163.124L773.532 165.2ZM777.532 157.3L780.413 158.138L781.529 154.3H777.532V157.3ZM771.432 155.6L768.556 156.452L768.577 156.526L768.603 156.598L771.432 155.6ZM758.132 110.7L755.212 111.387L755.231 111.47L755.256 111.552L758.132 110.7ZM768.132 110.7L765.212 111.387L765.226 111.446L765.242 111.504L768.132 110.7ZM779.032 149.9L776.142 150.704L776.752 152.9H779.032V149.9ZM779.432 149.9V152.9H781.712L782.322 150.704L779.432 149.9ZM790.332 110.7L793.222 111.504L793.261 111.364L793.286 111.221L790.332 110.7ZM800.332 110.8L803.217 111.622L803.263 111.46L803.291 111.293L800.332 110.8ZM786.632 158.9L783.747 158.078L783.743 158.093L783.739 158.108L786.632 158.9ZM780.132 171.7L777.962 169.629L777.95 169.641L777.939 169.653L780.132 171.7ZM768.132 173.2H762.832V179.2H768.132V173.2ZM762.832 173.2C762.728 173.2 763.201 173.176 763.678 173.654C764.156 174.131 764.132 174.604 764.132 174.5H758.132C758.132 175.529 758.391 176.852 759.436 177.896C760.48 178.941 761.803 179.2 762.832 179.2V173.2ZM764.132 174.5V169.4H758.132V174.5H764.132ZM764.132 169.4C764.132 169.221 764.177 169.645 763.738 170.11C763.268 170.607 762.773 170.6 762.832 170.6V164.6C761.758 164.6 760.412 164.893 759.376 165.99C758.37 167.055 758.132 168.379 758.132 169.4H764.132ZM762.832 170.6H765.132V164.6H762.832V170.6ZM765.132 170.6C769.395 170.6 773.279 169.8 775.698 167.276L771.366 163.124C770.719 163.8 769.003 164.6 765.132 164.6V170.6ZM775.653 167.321C777.777 165.197 779.29 161.997 780.413 158.138L774.651 156.462C773.641 159.937 772.487 162.003 771.411 163.079L775.653 167.321ZM777.532 154.3H773.532V160.3H777.532V154.3ZM773.532 154.3C773.567 154.3 773.66 154.305 773.787 154.348C773.918 154.391 774.042 154.46 774.145 154.543C774.347 154.707 774.336 154.815 774.261 154.602L768.603 156.598C768.928 157.518 769.467 158.476 770.369 159.207C771.313 159.971 772.425 160.3 773.532 160.3V154.3ZM774.308 154.748L761.008 109.848L755.256 111.552L768.556 156.452L774.308 154.748ZM761.052 110.013C760.997 109.776 761.236 110.467 760.64 111.247C760.021 112.057 759.245 112 759.432 112V106C758.486 106 756.927 106.226 755.874 107.603C754.844 108.949 755.001 110.49 755.212 111.387L761.052 110.013ZM759.432 112H766.132V106H759.432V112ZM766.132 112C766.135 112 766.055 112 765.925 111.958C765.787 111.913 765.632 111.832 765.489 111.711C765.195 111.461 765.177 111.24 765.212 111.387L771.052 110.013C770.82 109.027 770.335 107.955 769.375 107.139C768.387 106.3 767.215 106 766.132 106V112ZM765.242 111.504L776.142 150.704L781.922 149.096L771.022 109.896L765.242 111.504ZM779.032 152.9H779.432V146.9H779.032V152.9ZM782.322 150.704L793.222 111.504L787.442 109.896L776.542 149.096L782.322 150.704ZM793.286 111.221C793.304 111.123 793.272 111.416 792.925 111.711C792.572 112.011 792.263 112 792.332 112V106C791.268 106 790.058 106.273 789.039 107.139C788.025 108.001 787.56 109.143 787.378 110.179L793.286 111.221ZM792.332 112H798.732V106H792.332V112ZM798.732 112C798.997 112 798.402 112.075 797.84 111.443C797.246 110.775 797.402 110.131 797.373 110.307L803.291 111.293C803.462 110.269 803.451 108.725 802.324 107.457C801.229 106.225 799.734 106 798.732 106V112ZM797.447 109.978L783.747 158.078L789.517 159.722L803.217 111.622L797.447 109.978ZM783.739 158.108C782.283 163.422 780.302 167.177 777.962 169.629L782.302 173.771C785.562 170.356 787.914 165.578 789.526 159.692L783.739 158.108ZM777.939 169.653C775.849 171.892 772.737 173.2 768.132 173.2V179.2C773.927 179.2 778.815 177.508 782.325 173.747L777.939 169.653Z" fill="#3E85F0"/>
<rect x="1365.52" y="282.288" width="95" height="95" transform="rotate(-50.9451 1365.52 282.288)" stroke="#FD5C63" stroke-width="5"/>
<rect x="1384.41" y="279.641" width="67.2649" height="67.2649" transform="rotate(-50.9451 1384.41 279.641)" stroke="#FD5C63" stroke-width="2"/>
</svg>
