<svg width="248" height="149" viewBox="0 0 248 149" fill="none" xmlns="http://www.w3.org/2000/svg">
<path d="M68.5499 19.9993C70.3557 14.0195 78.8226 14.0195 80.6283 19.9993C82.0663 24.7612 88.1924 26.0633 91.4428 22.298C95.5247 17.5696 103.26 21.0135 102.477 27.2108L102.418 27.678C101.81 32.4908 106.677 36.132 111.123 34.1905L112.456 33.6081C117.959 31.2047 123.089 37.6449 119.515 42.4709C116.649 46.3407 119.412 51.8237 124.227 51.8237H125.371C131.678 51.8237 134.225 59.9515 129.046 63.5513L128.764 63.7475C124.68 66.5865 125.334 72.8152 129.92 74.743C135.678 77.1639 134.793 85.5845 128.657 86.7552C123.771 87.6875 121.836 93.644 125.241 97.2702C129.517 101.824 125.283 109.157 119.202 107.73C114.359 106.595 110.168 111.249 111.804 115.947C113.858 121.846 107.008 126.823 102.032 123.046C98.0697 120.039 92.3481 122.586 91.9316 127.543C91.4086 133.768 83.1267 135.528 80.1172 130.054C77.7207 125.696 71.4576 125.696 69.0611 130.054C66.0515 135.528 57.7696 133.768 57.2466 127.543C56.8302 122.586 51.1086 120.039 47.1464 123.046C42.1707 126.823 35.3208 121.846 37.3748 115.947C39.0104 111.249 34.8196 106.595 29.9768 107.73C23.8952 109.157 19.6618 101.824 23.9376 97.2702C27.3425 93.644 25.4071 87.6875 20.5211 86.7552C14.3852 85.5845 13.5002 77.1639 19.2585 74.743C23.844 72.8152 24.4986 66.5865 20.4142 63.7475C15.285 60.1823 17.9015 52.1297 24.1466 52.2603C29.1197 52.3642 32.2512 46.9402 29.6747 42.6854C26.4391 37.3422 32.1045 31.05 37.7567 33.7094C42.2576 35.8271 47.3245 32.1458 46.7013 27.2108C45.9187 21.0135 53.6536 17.5696 57.7354 22.298C60.9859 26.0633 67.112 24.7612 68.5499 19.9993Z" fill="#FD5C63"/>
<path d="M150.46 57.4C152.22 57.496 153.556 57.976 154.468 58.84C155.396 59.688 155.86 60.8 155.86 62.176C155.86 63.136 155.628 63.992 155.164 64.744C154.7 65.48 154.012 66.064 153.1 66.496C152.188 66.928 151.076 67.144 149.764 67.144C148.548 67.144 147.396 66.952 146.308 66.568C145.236 66.168 144.372 65.64 143.716 64.984L144.556 63.616C145.116 64.192 145.86 64.664 146.788 65.032C147.716 65.384 148.708 65.56 149.764 65.56C151.14 65.56 152.204 65.264 152.956 64.672C153.708 64.064 154.084 63.232 154.084 62.176C154.084 61.136 153.708 60.32 152.956 59.728C152.204 59.136 151.068 58.84 149.548 58.84H148.348V57.568L153.004 51.736H144.412V50.2H155.212V51.424L150.46 57.4ZM170.336 61.384H167.456V67H165.752V54.376H167.456V59.92H170.36L174.8 54.376H176.648L171.68 60.496L177.008 67H174.992L170.336 61.384ZM184.107 67.072V71.656H182.403V67.072L176.787 54.376H178.587L183.291 65.128L188.067 54.376H189.747L184.107 67.072ZM192.377 54.376H194.081V59.968H202.025V54.376H203.729V67H202.025V61.432H194.081V67H192.377V54.376ZM208.572 54.376H210.276V59.968H218.22V54.376H219.924V67H218.22V61.432H210.276V67H208.572V54.376ZM224.768 54.376H226.472V67H224.768V54.376ZM225.632 51.616C225.28 51.616 224.984 51.496 224.744 51.256C224.504 51.016 224.384 50.728 224.384 50.392C224.384 50.072 224.504 49.792 224.744 49.552C224.984 49.312 225.28 49.192 225.632 49.192C225.984 49.192 226.28 49.312 226.52 49.552C226.76 49.776 226.88 50.048 226.88 50.368C226.88 50.72 226.76 51.016 226.52 51.256C226.28 51.496 225.984 51.616 225.632 51.616ZM231.33 54.376H233.034V59.968H240.978V54.376H242.682V67H240.978V61.432H233.034V67H231.33V54.376ZM244.722 65.512V69.76H243.114V67H240.978V65.512H244.722ZM145.924 85.376H147.628V98H145.924V85.376ZM146.788 82.616C146.436 82.616 146.14 82.496 145.9 82.256C145.66 82.016 145.54 81.728 145.54 81.392C145.54 81.072 145.66 80.792 145.9 80.552C146.14 80.312 146.436 80.192 146.788 80.192C147.14 80.192 147.436 80.312 147.676 80.552C147.916 80.776 148.036 81.048 148.036 81.368C148.036 81.72 147.916 82.016 147.676 82.256C147.436 82.496 147.14 82.616 146.788 82.616ZM169.911 85.376V98H152.487V85.376H154.191V96.512H160.383V85.376H162.087V96.512H168.207V85.376H169.911ZM174.776 85.376H176.48V98H174.776V85.376ZM175.64 82.616C175.288 82.616 174.992 82.496 174.752 82.256C174.512 82.016 174.392 81.728 174.392 81.392C174.392 81.072 174.512 80.792 174.752 80.552C174.992 80.312 175.288 80.192 175.64 80.192C175.992 80.192 176.288 80.312 176.528 80.552C176.768 80.776 176.888 81.048 176.888 81.368C176.888 81.72 176.768 82.016 176.528 82.256C176.288 82.496 175.992 82.616 175.64 82.616ZM181.338 85.376H183.042V90.968H190.986V85.376H192.69V98H190.986V92.432H183.042V98H181.338V85.376ZM209.845 96.512V101.048H208.237V98H196.933V101.048H195.325V96.512H196.045C196.893 96.464 197.469 95.84 197.773 94.64C198.077 93.44 198.285 91.76 198.397 89.6L198.565 85.376H207.877V96.512H209.845ZM199.957 89.696C199.877 91.488 199.725 92.968 199.501 94.136C199.277 95.288 198.877 96.08 198.301 96.512H206.173V86.888H200.101L199.957 89.696ZM224.206 92.216H213.646C213.742 93.528 214.246 94.592 215.158 95.408C216.07 96.208 217.222 96.608 218.614 96.608C219.398 96.608 220.118 96.472 220.774 96.2C221.43 95.912 221.998 95.496 222.478 94.952L223.438 96.056C222.878 96.728 222.174 97.24 221.326 97.592C220.494 97.944 219.574 98.12 218.566 98.12C217.27 98.12 216.118 97.848 215.11 97.304C214.118 96.744 213.342 95.976 212.782 95C212.222 94.024 211.942 92.92 211.942 91.688C211.942 90.456 212.206 89.352 212.734 88.376C213.278 87.4 214.014 86.64 214.942 86.096C215.886 85.552 216.942 85.28 218.11 85.28C219.278 85.28 220.326 85.552 221.254 86.096C222.182 86.64 222.91 87.4 223.438 88.376C223.966 89.336 224.23 90.44 224.23 91.688L224.206 92.216ZM218.11 86.744C216.894 86.744 215.87 87.136 215.038 87.92C214.222 88.688 213.758 89.696 213.646 90.944H222.598C222.486 89.696 222.014 88.688 221.182 87.92C220.366 87.136 219.342 86.744 218.11 86.744Z" fill="black"/>
<path d="M27.2 74.8H38.2V78.96H27.2V74.8ZM61.8447 83.6V88H41.2047V84.52L52.3247 73.96C53.578 72.76 54.418 71.72 54.8447 70.84C55.298 69.9333 55.5247 69.04 55.5247 68.16C55.5247 66.8533 55.0847 65.8533 54.2047 65.16C53.3247 64.4667 52.0314 64.12 50.3247 64.12C47.4714 64.12 45.2847 65.0933 43.7647 67.04L40.1247 64.24C41.218 62.7733 42.6847 61.64 44.5247 60.84C46.3914 60.0133 48.4714 59.6 50.7647 59.6C53.8047 59.6 56.2314 60.32 58.0447 61.76C59.858 63.2 60.7647 65.16 60.7647 67.64C60.7647 69.16 60.4447 70.5867 59.8047 71.92C59.1647 73.2533 57.938 74.7733 56.1247 76.48L48.6447 83.6H61.8447ZM76.4088 88.4C74.1688 88.4 72.1688 87.84 70.4088 86.72C68.6488 85.5733 67.2621 83.92 66.2488 81.76C65.2354 79.5733 64.7288 76.9867 64.7288 74C64.7288 71.0133 65.2354 68.44 66.2488 66.28C67.2621 64.0933 68.6488 62.44 70.4088 61.32C72.1688 60.1733 74.1688 59.6 76.4088 59.6C78.6488 59.6 80.6488 60.1733 82.4088 61.32C84.1954 62.44 85.5954 64.0933 86.6088 66.28C87.6221 68.44 88.1288 71.0133 88.1288 74C88.1288 76.9867 87.6221 79.5733 86.6088 81.76C85.5954 83.92 84.1954 85.5733 82.4088 86.72C80.6488 87.84 78.6488 88.4 76.4088 88.4ZM76.4088 83.88C78.4088 83.88 79.9821 83.0533 81.1288 81.4C82.3021 79.7467 82.8888 77.28 82.8888 74C82.8888 70.72 82.3021 68.2533 81.1288 66.6C79.9821 64.9467 78.4088 64.12 76.4088 64.12C74.4354 64.12 72.8621 64.9467 71.6888 66.6C70.5421 68.2533 69.9688 70.72 69.9688 74C69.9688 77.28 70.5421 79.7467 71.6888 81.4C72.8621 83.0533 74.4354 83.88 76.4088 83.88ZM97.8828 75.08C95.8828 75.08 94.2695 74.3733 93.0428 72.96C91.8161 71.5467 91.2028 69.6933 91.2028 67.4C91.2028 65.1067 91.8161 63.2533 93.0428 61.84C94.2695 60.4267 95.8828 59.72 97.8828 59.72C99.8828 59.72 101.496 60.4267 102.723 61.84C103.976 63.2267 104.603 65.08 104.603 67.4C104.603 69.72 103.976 71.5867 102.723 73C101.496 74.3867 99.8828 75.08 97.8828 75.08ZM114.683 60H118.603L99.4828 88H95.5628L114.683 60ZM97.8828 72.28C98.9761 72.28 99.8161 71.8533 100.403 71C101.016 70.1467 101.323 68.9467 101.323 67.4C101.323 65.8533 101.016 64.6533 100.403 63.8C99.8161 62.9467 98.9761 62.52 97.8828 62.52C96.8428 62.52 96.0028 62.96 95.3628 63.84C94.7495 64.6933 94.4428 65.88 94.4428 67.4C94.4428 68.92 94.7495 70.12 95.3628 71C96.0028 71.8533 96.8428 72.28 97.8828 72.28ZM116.243 88.28C114.243 88.28 112.629 87.5733 111.403 86.16C110.176 84.7467 109.563 82.8933 109.563 80.6C109.563 78.3067 110.176 76.4533 111.403 75.04C112.629 73.6267 114.243 72.92 116.243 72.92C118.243 72.92 119.856 73.6267 121.083 75.04C122.336 76.4533 122.963 78.3067 122.963 80.6C122.963 82.8933 122.336 84.7467 121.083 86.16C119.856 87.5733 118.243 88.28 116.243 88.28ZM116.243 85.48C117.309 85.48 118.149 85.0533 118.763 84.2C119.376 83.32 119.683 82.12 119.683 80.6C119.683 79.08 119.376 77.8933 118.763 77.04C118.149 76.16 117.309 75.72 116.243 75.72C115.176 75.72 114.336 76.1467 113.723 77C113.109 77.8533 112.803 79.0533 112.803 80.6C112.803 82.1467 113.109 83.3467 113.723 84.2C114.336 85.0533 115.176 85.48 116.243 85.48Z" fill="white"/>
</svg>
