<svg width="278" height="149" viewBox="0 0 278 149" fill="none" xmlns="http://www.w3.org/2000/svg">
<path d="M68.5499 19.9993C70.3557 14.0195 78.8226 14.0195 80.6283 19.9993C82.0663 24.7612 88.1924 26.0633 91.4428 22.298C95.5247 17.5696 103.26 21.0135 102.477 27.2108L102.418 27.678C101.81 32.4908 106.677 36.132 111.123 34.1905L112.456 33.6081C117.959 31.2047 123.089 37.6449 119.515 42.4709C116.649 46.3407 119.412 51.8237 124.227 51.8237H125.371C131.678 51.8237 134.225 59.9515 129.046 63.5513L128.764 63.7475C124.68 66.5865 125.334 72.8152 129.92 74.743C135.678 77.1639 134.793 85.5845 128.657 86.7552C123.771 87.6875 121.836 93.644 125.241 97.2702C129.517 101.824 125.283 109.157 119.202 107.73C114.359 106.595 110.168 111.249 111.804 115.947C113.858 121.846 107.008 126.823 102.032 123.046C98.0697 120.039 92.3481 122.586 91.9316 127.543C91.4086 133.768 83.1267 135.528 80.1172 130.054C77.7207 125.696 71.4576 125.696 69.0611 130.054C66.0515 135.528 57.7696 133.768 57.2466 127.543C56.8302 122.586 51.1086 120.039 47.1464 123.046C42.1707 126.823 35.3208 121.846 37.3748 115.947C39.0104 111.249 34.8196 106.595 29.9768 107.73C23.8952 109.157 19.6618 101.824 23.9376 97.2702C27.3425 93.644 25.4071 87.6875 20.5211 86.7552C14.3852 85.5845 13.5002 77.1639 19.2585 74.743C23.844 72.8152 24.4986 66.5865 20.4142 63.7475C15.285 60.1823 17.9015 52.1297 24.1466 52.2603C29.1197 52.3642 32.2512 46.9402 29.6747 42.6854C26.4391 37.3422 32.1045 31.05 37.7567 33.7094C42.2576 35.8271 47.3245 32.1458 46.7013 27.2108C45.9187 21.0135 53.6536 17.5696 57.7354 22.298C60.9859 26.0633 67.112 24.7612 68.5499 19.9993Z" fill="#FD5C63"/>
<path d="M155.792 58.336C156.96 58.576 157.848 59.048 158.456 59.752C159.064 60.44 159.368 61.344 159.368 62.464C159.368 63.92 158.848 65.04 157.808 65.824C156.784 66.608 155.272 67 153.272 67H145.832V50.2H152.816C154.608 50.2 156.008 50.568 157.016 51.304C158.024 52.04 158.528 53.104 158.528 54.496C158.528 55.44 158.288 56.24 157.808 56.896C157.328 57.536 156.656 58.016 155.792 58.336ZM147.584 57.808H152.72C154.016 57.808 155.008 57.544 155.696 57.016C156.4 56.488 156.752 55.72 156.752 54.712C156.752 53.704 156.4 52.936 155.696 52.408C155.008 51.88 154.016 51.616 152.72 51.616H147.584V57.808ZM153.272 65.584C156.168 65.584 157.616 64.504 157.616 62.344C157.616 60.232 156.168 59.176 153.272 59.176H147.584V65.584H153.272ZM178.562 55.888H173.786V67H172.082V55.888H167.306V54.376H178.562V55.888ZM191.48 61.216H180.92C181.016 62.528 181.52 63.592 182.432 64.408C183.344 65.208 184.496 65.608 185.888 65.608C186.672 65.608 187.392 65.472 188.048 65.2C188.704 64.912 189.272 64.496 189.752 63.952L190.712 65.056C190.152 65.728 189.448 66.24 188.6 66.592C187.768 66.944 186.848 67.12 185.84 67.12C184.544 67.12 183.392 66.848 182.384 66.304C181.392 65.744 180.616 64.976 180.056 64C179.496 63.024 179.216 61.92 179.216 60.688C179.216 59.456 179.48 58.352 180.008 57.376C180.552 56.4 181.288 55.64 182.216 55.096C183.16 54.552 184.216 54.28 185.384 54.28C186.552 54.28 187.6 54.552 188.528 55.096C189.456 55.64 190.184 56.4 190.712 57.376C191.24 58.336 191.504 59.44 191.504 60.688L191.48 61.216ZM185.384 55.744C184.168 55.744 183.144 56.136 182.312 56.92C181.496 57.688 181.032 58.696 180.92 59.944H189.872C189.76 58.696 189.288 57.688 188.456 56.92C187.64 56.136 186.616 55.744 185.384 55.744ZM204.804 54.376V67H203.1V61.744C201.644 62.384 200.212 62.704 198.804 62.704C197.284 62.704 196.1 62.36 195.252 61.672C194.404 60.968 193.98 59.92 193.98 58.528V54.376H195.684V58.432C195.684 59.376 195.988 60.096 196.596 60.592C197.204 61.072 198.044 61.312 199.116 61.312C200.3 61.312 201.628 61 203.1 60.376V54.376H204.804ZM220.683 61.216H210.123C210.219 62.528 210.723 63.592 211.635 64.408C212.547 65.208 213.699 65.608 215.091 65.608C215.875 65.608 216.595 65.472 217.251 65.2C217.907 64.912 218.475 64.496 218.955 63.952L219.915 65.056C219.355 65.728 218.651 66.24 217.803 66.592C216.971 66.944 216.051 67.12 215.043 67.12C213.747 67.12 212.595 66.848 211.587 66.304C210.595 65.744 209.819 64.976 209.259 64C208.699 63.024 208.419 61.92 208.419 60.688C208.419 59.456 208.683 58.352 209.211 57.376C209.755 56.4 210.491 55.64 211.419 55.096C212.363 54.552 213.419 54.28 214.587 54.28C215.755 54.28 216.803 54.552 217.731 55.096C218.659 55.64 219.387 56.4 219.915 57.376C220.443 58.336 220.707 59.44 220.707 60.688L220.683 61.216ZM214.587 55.744C213.371 55.744 212.347 56.136 211.515 56.92C210.699 57.688 210.235 58.696 210.123 59.944H219.075C218.963 58.696 218.491 57.688 217.659 56.92C216.843 56.136 215.819 55.744 214.587 55.744ZM224.479 54.376H226.183V59.968H234.127V54.376H235.831V67H234.127V61.432H226.183V67H224.479V54.376ZM240.674 54.376H242.378V64.408L250.802 54.376H252.314V67H250.61V56.968L242.21 67H240.674V54.376ZM257.197 54.376H258.901V64.408L267.325 54.376H268.837V67H267.133V56.968L258.733 67H257.197V54.376ZM149.96 88.4C151.72 88.496 153.056 88.976 153.968 89.84C154.896 90.688 155.36 91.8 155.36 93.176C155.36 94.136 155.128 94.992 154.664 95.744C154.2 96.48 153.512 97.064 152.6 97.496C151.688 97.928 150.576 98.144 149.264 98.144C148.048 98.144 146.896 97.952 145.808 97.568C144.736 97.168 143.872 96.64 143.216 95.984L144.056 94.616C144.616 95.192 145.36 95.664 146.288 96.032C147.216 96.384 148.208 96.56 149.264 96.56C150.64 96.56 151.704 96.264 152.456 95.672C153.208 95.064 153.584 94.232 153.584 93.176C153.584 92.136 153.208 91.32 152.456 90.728C151.704 90.136 150.568 89.84 149.048 89.84H147.848V88.568L152.504 82.736H143.912V81.2H154.712V82.424L149.96 88.4ZM177.564 96.512V101.048H175.956V98H164.652V101.048H163.044V96.512H163.764C164.612 96.464 165.188 95.84 165.492 94.64C165.796 93.44 166.004 91.76 166.116 89.6L166.284 85.376H175.596V96.512H177.564ZM167.676 89.696C167.596 91.488 167.444 92.968 167.22 94.136C166.996 95.288 166.596 96.08 166.02 96.512H173.892V86.888H167.82L167.676 89.696ZM180.885 85.376H182.589V90.968H190.533V85.376H192.237V98H190.533V92.432H182.589V98H180.885V85.376ZM208.12 92.216H197.56C197.656 93.528 198.16 94.592 199.072 95.408C199.984 96.208 201.136 96.608 202.528 96.608C203.312 96.608 204.032 96.472 204.688 96.2C205.344 95.912 205.912 95.496 206.392 94.952L207.352 96.056C206.792 96.728 206.088 97.24 205.24 97.592C204.408 97.944 203.488 98.12 202.48 98.12C201.184 98.12 200.032 97.848 199.024 97.304C198.032 96.744 197.256 95.976 196.696 95C196.136 94.024 195.856 92.92 195.856 91.688C195.856 90.456 196.12 89.352 196.648 88.376C197.192 87.4 197.928 86.64 198.856 86.096C199.8 85.552 200.856 85.28 202.024 85.28C203.192 85.28 204.24 85.552 205.168 86.096C206.096 86.64 206.824 87.4 207.352 88.376C207.88 89.336 208.144 90.44 208.144 91.688L208.12 92.216ZM202.024 86.744C200.808 86.744 199.784 87.136 198.952 87.92C198.136 88.688 197.672 89.696 197.56 90.944H206.512C206.4 89.696 205.928 88.688 205.096 87.92C204.28 87.136 203.256 86.744 202.024 86.744ZM211.916 85.376H213.62V95.408L222.044 85.376H223.556V98H221.852V87.968L213.452 98H211.916V85.376ZM217.652 83.552C216.564 83.552 215.7 83.28 215.06 82.736C214.42 82.192 214.092 81.424 214.076 80.432H215.3C215.316 81.056 215.54 81.56 215.972 81.944C216.404 82.312 216.964 82.496 217.652 82.496C218.34 82.496 218.9 82.312 219.332 81.944C219.78 81.56 220.012 81.056 220.028 80.432H221.252C221.236 81.424 220.9 82.192 220.244 82.736C219.604 83.28 218.74 83.552 217.652 83.552Z" fill="black"/>
<path d="M27.2 74.8H38.2V78.96H27.2V74.8ZM61.8447 83.6V88H41.2047V84.52L52.3247 73.96C53.578 72.76 54.418 71.72 54.8447 70.84C55.298 69.9333 55.5247 69.04 55.5247 68.16C55.5247 66.8533 55.0847 65.8533 54.2047 65.16C53.3247 64.4667 52.0314 64.12 50.3247 64.12C47.4714 64.12 45.2847 65.0933 43.7647 67.04L40.1247 64.24C41.218 62.7733 42.6847 61.64 44.5247 60.84C46.3914 60.0133 48.4714 59.6 50.7647 59.6C53.8047 59.6 56.2314 60.32 58.0447 61.76C59.858 63.2 60.7647 65.16 60.7647 67.64C60.7647 69.16 60.4447 70.5867 59.8047 71.92C59.1647 73.2533 57.938 74.7733 56.1247 76.48L48.6447 83.6H61.8447ZM76.4088 88.4C74.1688 88.4 72.1688 87.84 70.4088 86.72C68.6488 85.5733 67.2621 83.92 66.2488 81.76C65.2354 79.5733 64.7288 76.9867 64.7288 74C64.7288 71.0133 65.2354 68.44 66.2488 66.28C67.2621 64.0933 68.6488 62.44 70.4088 61.32C72.1688 60.1733 74.1688 59.6 76.4088 59.6C78.6488 59.6 80.6488 60.1733 82.4088 61.32C84.1954 62.44 85.5954 64.0933 86.6088 66.28C87.6221 68.44 88.1288 71.0133 88.1288 74C88.1288 76.9867 87.6221 79.5733 86.6088 81.76C85.5954 83.92 84.1954 85.5733 82.4088 86.72C80.6488 87.84 78.6488 88.4 76.4088 88.4ZM76.4088 83.88C78.4088 83.88 79.9821 83.0533 81.1288 81.4C82.3021 79.7467 82.8888 77.28 82.8888 74C82.8888 70.72 82.3021 68.2533 81.1288 66.6C79.9821 64.9467 78.4088 64.12 76.4088 64.12C74.4354 64.12 72.8621 64.9467 71.6888 66.6C70.5421 68.2533 69.9688 70.72 69.9688 74C69.9688 77.28 70.5421 79.7467 71.6888 81.4C72.8621 83.0533 74.4354 83.88 76.4088 83.88ZM97.8828 75.08C95.8828 75.08 94.2695 74.3733 93.0428 72.96C91.8161 71.5467 91.2028 69.6933 91.2028 67.4C91.2028 65.1067 91.8161 63.2533 93.0428 61.84C94.2695 60.4267 95.8828 59.72 97.8828 59.72C99.8828 59.72 101.496 60.4267 102.723 61.84C103.976 63.2267 104.603 65.08 104.603 67.4C104.603 69.72 103.976 71.5867 102.723 73C101.496 74.3867 99.8828 75.08 97.8828 75.08ZM114.683 60H118.603L99.4828 88H95.5628L114.683 60ZM97.8828 72.28C98.9761 72.28 99.8161 71.8533 100.403 71C101.016 70.1467 101.323 68.9467 101.323 67.4C101.323 65.8533 101.016 64.6533 100.403 63.8C99.8161 62.9467 98.9761 62.52 97.8828 62.52C96.8428 62.52 96.0028 62.96 95.3628 63.84C94.7495 64.6933 94.4428 65.88 94.4428 67.4C94.4428 68.92 94.7495 70.12 95.3628 71C96.0028 71.8533 96.8428 72.28 97.8828 72.28ZM116.243 88.28C114.243 88.28 112.629 87.5733 111.403 86.16C110.176 84.7467 109.563 82.8933 109.563 80.6C109.563 78.3067 110.176 76.4533 111.403 75.04C112.629 73.6267 114.243 72.92 116.243 72.92C118.243 72.92 119.856 73.6267 121.083 75.04C122.336 76.4533 122.963 78.3067 122.963 80.6C122.963 82.8933 122.336 84.7467 121.083 86.16C119.856 87.5733 118.243 88.28 116.243 88.28ZM116.243 85.48C117.309 85.48 118.149 85.0533 118.763 84.2C119.376 83.32 119.683 82.12 119.683 80.6C119.683 79.08 119.376 77.8933 118.763 77.04C118.149 76.16 117.309 75.72 116.243 75.72C115.176 75.72 114.336 76.1467 113.723 77C113.109 77.8533 112.803 79.0533 112.803 80.6C112.803 82.1467 113.109 83.3467 113.723 84.2C114.336 85.0533 115.176 85.48 116.243 85.48Z" fill="white"/>
</svg>
