<svg width="190" height="190" viewBox="0 0 190 190" fill="none" xmlns="http://www.w3.org/2000/svg">
<circle cx="95" cy="95" r="95" fill="#C4DAFA"/>
<path d="M107.63 127.7V142H40.55V130.69L76.69 96.37C80.7633 92.47 83.4933 89.09 84.88 86.23C86.3533 83.2833 87.09 80.38 87.09 77.52C87.09 73.2733 85.66 70.0233 82.8 67.77C79.94 65.5167 75.7367 64.39 70.19 64.39C60.9167 64.39 53.81 67.5533 48.87 73.88L37.04 64.78C40.5933 60.0133 45.36 56.33 51.34 53.73C57.4067 51.0433 64.1667 49.7 71.62 49.7C81.5 49.7 89.3867 52.04 95.28 56.72C101.173 61.4 104.12 67.77 104.12 75.83C104.12 80.77 103.08 85.4067 101 89.74C98.92 94.0733 94.9333 99.0133 89.04 104.56L64.73 127.7H107.63ZM148.844 51V142H131.944V65.17H112.704V51H148.844Z" fill="#89B9FF"/>
<path d="M101.63 121.7H104.63V118.7H101.63V121.7ZM101.63 136V139H104.63V136H101.63ZM34.55 136H31.55V139H34.55V136ZM34.55 124.69L32.4842 122.515L31.55 123.402V124.69H34.55ZM70.69 90.37L72.7559 92.5454L72.7647 92.5369L70.69 90.37ZM78.88 80.23L76.1967 78.8884L76.1885 78.9047L76.1806 78.9212L78.88 80.23ZM76.8 61.77L78.6566 59.4135L78.6566 59.4135L76.8 61.77ZM42.87 67.88L41.0409 70.2579L43.4016 72.0738L45.2346 69.7263L42.87 67.88ZM31.04 58.78L28.6348 56.987L26.8687 59.3562L29.2109 61.1579L31.04 58.78ZM45.34 47.73L46.5362 50.4812L46.5455 50.4772L46.5548 50.473L45.34 47.73ZM89.28 50.72L87.4144 53.0693L87.4144 53.0693L89.28 50.72ZM95 83.74L92.2954 82.4418H92.2954L95 83.74ZM83.04 98.56L80.9839 96.3754L80.9777 96.3812L80.9716 96.387L83.04 98.56ZM58.73 121.7L56.6616 119.527L51.2271 124.7H58.73V121.7ZM98.63 121.7V136H104.63V121.7H98.63ZM101.63 133H34.55V139H101.63V133ZM37.55 136V124.69H31.55V136H37.55ZM36.6158 126.865L72.7558 92.5454L68.6242 88.1946L32.4842 122.515L36.6158 126.865ZM72.7647 92.5369C76.9281 88.5507 79.9608 84.8774 81.5794 81.5388L76.1806 78.9212C75.0259 81.3026 72.5986 84.3893 68.6153 88.2031L72.7647 92.5369ZM81.5633 81.5716C83.2132 78.2718 84.09 74.9118 84.09 71.52H78.09C78.09 73.8482 77.4935 76.2948 76.1967 78.8884L81.5633 81.5716ZM84.09 71.52C84.09 66.526 82.3636 62.3342 78.6566 59.4135L74.9434 64.1265C76.9564 65.7124 78.09 68.0206 78.09 71.52H84.09ZM78.6566 59.4135C75.0538 56.5749 70.0752 55.39 64.19 55.39V61.39C69.3981 61.39 72.8262 62.4584 74.9434 64.1265L78.6566 59.4135ZM64.19 55.39C54.1549 55.39 46.1067 58.8601 40.5054 66.0337L45.2346 69.7263C49.5133 64.2466 55.6784 61.39 64.19 61.39V55.39ZM44.6991 65.5021L32.8691 56.4021L29.2109 61.1579L41.0409 70.2579L44.6991 65.5021ZM33.4452 60.573C36.6563 56.2655 40.9881 52.8934 46.5362 50.4812L44.1438 44.9788C37.7319 47.7666 32.5304 51.7612 28.6348 56.987L33.4452 60.573ZM46.5548 50.473C52.1943 47.9756 58.5334 46.7 65.62 46.7V40.7C57.7999 40.7 50.6191 42.1111 44.1252 44.9869L46.5548 50.473ZM65.62 46.7C75.0356 46.7 82.1974 48.9264 87.4144 53.0693L91.1456 48.3707C84.576 43.1536 75.9644 40.7 65.62 40.7V46.7ZM87.4144 53.0693C92.5344 57.1353 95.12 62.6103 95.12 69.83H101.12C101.12 60.9297 97.8122 53.6647 91.1456 48.3707L87.4144 53.0693ZM95.12 69.83C95.12 74.3335 94.1755 78.525 92.2954 82.4418L97.7046 85.0382C99.9845 80.2883 101.12 75.2065 101.12 69.83H95.12ZM92.2954 82.4418C90.448 86.2906 86.7666 90.9328 80.9839 96.3754L85.0961 100.745C91.1 95.0938 95.392 89.856 97.7046 85.0382L92.2954 82.4418ZM80.9716 96.387L56.6616 119.527L60.7984 123.873L85.1084 100.733L80.9716 96.387ZM58.73 124.7H101.63V118.7H58.73V124.7ZM142.844 45H145.844V42H142.844V45ZM142.844 136V139H145.844V136H142.844ZM125.944 136H122.944V139H125.944V136ZM125.944 59.17H128.944V56.17H125.944V59.17ZM106.704 59.17H103.704V62.17H106.704V59.17ZM106.704 45V42H103.704V45H106.704ZM139.844 45V136H145.844V45H139.844ZM142.844 133H125.944V139H142.844V133ZM128.944 136V59.17H122.944V136H128.944ZM125.944 56.17H106.704V62.17H125.944V56.17ZM109.704 59.17V45H103.704V59.17H109.704ZM106.704 48H142.844V42H106.704V48Z" fill="black"/>
</svg>
